<?xml version="1.0" encoding="utf-8"?>
<svg data-icon-name="id-card-2" data-style="multi-color" icon_origin_id="15524" viewBox="0 0 24 24" id="id-card-2" class="icon multi-color" width="48" height="48" xmlns="http://www.w3.org/2000/svg">
  <rect x="9.613" y="13.696" width="4.774" height="3.568" style="fill: rgb(250, 189, 47);"/>
  <path style="stroke-linecap: round; stroke-linejoin: round; stroke-width: 2px; fill-rule: nonzero; stroke: rgb(142, 192, 124); paint-order: fill; fill: none;" d="M6,5H18a1,1,0,0,1,1,1V20a1,1,0,0,1-1,1H6a1,1,0,0,1-1-1V6A1,1,0,0,1,6,5Zm6,4a2,2,0,1,0,2,2A2,2,0,0,0,12,9Zm3,7a3,3,0,0,0-3-3h0a3,3,0,0,0-3,3v1h6ZM14,3H10V5h4Z" id="primary"/>
  <ellipse style="fill: rgb(250, 189, 47);" cx="12" cy="11" rx="1.428" ry="1.4"/>
</svg>